<?xml version="1.0" encoding="UTF-8"?>
<svg xmlns="http://www.w3.org/2000/svg" xmlns:xlink="http://www.w3.org/1999/xlink" width="1418.205pt" height="1360.143pt" viewBox="0 0 1418.205 1360.143" version="1.1">
<defs>
<clipPath id="clip1">
  <path d="M 43 43 L 1418.203125 43 L 1418.203125 1360.144531 L 43 1360.144531 Z M 43 43 "/>
</clipPath>
</defs>
<g id="surface1">
<g clip-path="url(#clip1)" clip-rule="nonzero">
<path style="fill:none;stroke-width:1.13385;stroke-linecap:butt;stroke-linejoin:miter;stroke:rgb(100%,100%,100%);stroke-opacity:1;stroke-miterlimit:10;" d="M -0.0014375 0.0006875 C -0.0014375 0.0006875 1.088406 0.055375 1.502469 0.121781 C 1.916531 0.188187 2.576687 0.348344 2.975125 0.481156 C 3.377469 0.613969 4.010281 0.879594 4.393094 1.078812 C 4.772 1.274125 5.369656 1.641312 5.721219 1.903031 C 6.076687 2.160844 6.619656 2.625687 6.939969 2.942094 C 7.256375 3.2585 7.74075 3.813187 8.018094 4.184281 C 8.295437 4.555375 8.705594 5.196 8.932156 5.617875 C 9.162625 6.03975 9.486844 6.754594 9.662625 7.219437 C 9.8345 7.680375 10.068875 8.461625 10.182156 8.965531 C 10.299344 9.465531 10.432156 10.301469 10.482937 10.836625 C 10.529812 11.367875 10.557156 12.246781 10.537625 12.805375 C 10.518094 13.360062 10.432156 14.274125 10.338406 14.844437 C 10.248562 15.41475 10.041531 16.348344 9.877469 16.926469 C 9.7095 17.5085 9.385281 18.442094 9.143094 19.024125 C 8.900906 19.60225 8.447781 20.531937 8.131375 21.10225 C 7.811062 21.672562 7.236844 22.578812 6.842312 23.129594 C 6.443875 23.680375 5.748562 24.555375 5.275906 25.078812 C 4.807156 25.606156 3.986844 26.426469 3.439969 26.91475 C 2.897 27.406937 1.963406 28.16475 1.346219 28.610062 C 0.729031 29.059281 -0.317844 29.738969 -1.001438 30.1335 C -1.685031 30.528031 -2.833469 31.121781 -3.583469 31.453812 C -4.329563 31.78975 -5.575656 32.278031 -6.380344 32.547562 C -7.185031 32.813187 -8.520969 33.188187 -9.376438 33.3835 C -10.228 33.574906 -11.642063 33.824906 -12.5405 33.938187 C -13.442844 34.051469 -14.919406 34.16475 -15.856906 34.192094 C -16.7905 34.215531 -18.32175 34.188187 -19.286594 34.125687 C -20.247531 34.059281 -21.817844 33.879594 -22.802219 33.719437 C -23.786594 33.555375 -25.376438 33.219437 -26.368625 32.957719 C -27.364719 32.699906 -28.966281 32.199906 -29.962375 31.840531 C -30.954563 31.47725 -32.548313 30.813187 -33.532688 30.348344 C -34.517063 29.8835 -36.087375 29.051469 -37.052219 28.481156 C -38.013156 27.910844 -39.544406 26.918656 -40.478 26.242875 C -41.411594 25.571 -42.88425 24.406937 -43.778781 23.629594 C -44.669406 22.856156 -46.067844 21.531937 -46.911594 20.656937 C -47.751438 19.781937 -49.060031 18.297562 -49.837375 17.324906 C -50.618625 16.356156 -51.817844 14.719437 -52.524875 13.656937 C -53.231906 12.594437 -54.310031 10.813187 -54.935031 9.66475 C -55.560031 8.516312 -56.497531 6.60225 -57.032688 5.375687 C -57.567844 4.145219 -58.353 2.110062 -58.7905 0.809281 C -59.224094 -0.4915 -59.841281 -2.636031 -60.169406 -3.999313 C -60.497531 -5.3665 -60.935031 -7.608688 -61.145969 -9.030563 C -61.356906 -10.448531 -61.606906 -12.77275 -61.69675 -14.237594 C -61.786594 -15.702438 -61.829563 -18.089156 -61.7905 -19.589156 C -61.755344 -21.089156 -61.591281 -23.52275 -61.419406 -25.046188 C -61.251438 -26.569625 -60.868625 -29.030563 -60.563938 -30.565719 C -60.255344 -32.100875 -59.649875 -34.569625 -59.204563 -36.104781 C -58.75925 -37.636031 -57.931125 -40.096969 -57.345188 -41.620406 C -56.75925 -43.139938 -55.700656 -45.565719 -54.970188 -47.057906 C -54.239719 -48.550094 -52.958469 -50.925094 -52.087375 -52.382125 C -51.216281 -53.83525 -49.704563 -56.132125 -48.69675 -57.534469 C -47.685031 -58.936813 -45.954563 -61.143844 -44.810031 -62.475875 C -43.661594 -63.811813 -41.716281 -65.901656 -40.438938 -67.159469 C -39.161594 -68.413375 -37.001438 -70.3665 -35.599094 -71.530563 C -34.192844 -72.694625 -31.841281 -74.4915 -30.313938 -75.554 C -28.7905 -76.6165 -26.247531 -78.233688 -24.610813 -79.179 C -22.974094 -80.124313 -20.25925 -81.546188 -18.520969 -82.3665 C -16.778781 -83.186813 -13.907688 -84.39775 -12.075656 -85.077438 C -10.239719 -85.761031 -7.224094 -86.7415 -5.310031 -87.27275 C -3.395969 -87.807906 -0.25925 -88.550094 1.725125 -88.929 C 3.7095 -89.307906 6.951687 -89.788375 8.994656 -90.003219 C 11.037625 -90.218063 14.361844 -90.432906 16.447781 -90.479781 C 18.533719 -90.52275 21.912625 -90.456344 24.029812 -90.327438 C 26.147 -90.194625 29.561062 -89.843063 31.693875 -89.530563 C 33.822781 -89.218063 37.248562 -88.577438 39.377469 -88.081344 C 41.506375 -87.58525 44.920437 -86.643844 47.033719 -85.964156 C 49.143094 -85.284469 52.518094 -84.046188 54.596219 -83.182906 C 56.674344 -82.315719 59.979031 -80.780563 62.010281 -79.729781 C 64.037625 -78.682906 67.252469 -76.846969 69.213406 -75.6165 C 71.17825 -74.386031 74.275906 -72.268844 76.158719 -70.858688 C 78.037625 -69.448531 80.986844 -67.042281 82.768094 -65.46025 C 84.549344 -63.878219 87.3345 -61.206344 89.002469 -59.46025 C 90.670437 -57.71025 93.256375 -54.776656 94.795437 -52.874313 C 96.3345 -50.968063 98.701687 -47.784469 100.096219 -45.733688 C 101.494656 -43.679 103.619656 -40.27275 104.857937 -38.081344 C 106.096219 -35.893844 107.955594 -32.268844 109.025906 -29.956344 C 110.092312 -27.643844 111.670437 -23.83525 112.557156 -21.409469 C 113.439969 -18.983688 114.717312 -15.007125 115.408719 -12.483688 C 116.100125 -9.964156 117.05325 -5.839156 117.541531 -3.237594 C 118.029812 -0.636031 118.658719 3.598344 118.932156 6.262406 C 119.2095 8.926469 119.482937 13.2585 119.537625 15.973344 C 119.596219 18.684281 119.518094 23.074906 119.350125 25.813187 C 119.186062 28.555375 118.736844 32.981156 118.342312 35.731156 C 117.947781 38.481156 117.127469 42.903031 116.502469 45.645219 C 115.873562 48.387406 114.686062 52.778031 113.826687 55.492875 C 112.967312 58.207719 111.400906 62.535844 110.311062 65.199906 C 109.221219 67.867875 107.283719 72.10225 105.963406 74.696 C 104.647 77.293656 102.342312 81.403031 100.799344 83.910844 C 99.252469 86.418656 96.592312 90.371781 94.830594 92.770219 C 93.064969 95.172562 90.061062 98.938187 88.0845 101.211625 C 86.107937 103.485062 82.764187 107.028031 80.5845 109.156937 C 78.404812 111.281937 74.748562 114.574906 72.377469 116.53975 C 70.006375 118.500687 66.049344 121.520219 63.498562 123.301469 C 60.947781 125.086625 56.713406 127.797562 53.994656 129.3835 C 51.279812 130.969437 46.791531 133.360062 43.92825 134.731156 C 41.061062 136.106156 36.338406 138.1335 33.342312 139.281937 C 30.342312 140.426469 25.420437 142.090531 22.307156 142.996781 C 19.193875 143.903031 14.100125 145.16475 10.893094 145.824906 C 7.682156 146.481156 2.455594 147.336625 -0.833469 147.735062 C -4.118625 148.137406 -9.454563 148.567094 -12.794406 148.696 C -16.13425 148.828812 -21.5405 148.824906 -24.911594 148.680375 C -28.286594 148.53975 -33.728 148.094437 -37.110813 147.672562 C -40.497531 147.250687 -45.935031 146.35225 -49.306125 145.649125 C -52.681125 144.949906 -58.079563 143.594437 -61.411594 142.613969 C -64.747531 141.629594 -70.07175 139.832719 -73.349094 138.571 C -76.622531 137.309281 -81.829563 135.055375 -85.024875 133.516312 C -88.216281 131.97725 -93.270969 129.293656 -96.356906 127.481156 C -99.442844 125.672562 -104.306125 122.547562 -107.25925 120.473344 C -110.216281 118.399125 -114.856906 114.863969 -117.657688 112.535844 C -120.462375 110.207719 -124.837375 106.270219 -127.466281 103.699906 C -130.095188 101.129594 -134.169406 96.809281 -136.606906 94.0085 C -139.0405 91.207719 -142.7905 86.535844 -145.00925 83.520219 C -147.228 80.504594 -150.606906 75.488969 -152.591281 72.274125 C -154.575656 69.059281 -157.57175 63.746781 -159.306125 60.35225 C -161.036594 56.957719 -163.610813 51.367875 -165.075656 47.817094 C -166.536594 44.262406 -168.6655 38.434281 -169.849094 34.738969 C -171.028781 31.047562 -172.704563 25.012406 -173.591281 21.203812 C -174.478 17.395219 -175.649875 11.188187 -176.228 7.28975 C -176.806125 3.387406 -177.493625 -2.936813 -177.755344 -6.905563 C -178.020969 -10.874313 -178.188938 -17.292281 -178.130344 -21.304 C -178.07175 -25.311813 -177.712375 -31.780563 -177.325656 -35.804 C -176.938938 -39.827438 -176.056125 -46.300094 -175.341281 -50.311813 C -174.622531 -54.323531 -173.200656 -60.753219 -172.153781 -64.729781 C -171.103 -68.702438 -169.153781 -75.046188 -167.778781 -78.956344 C -166.399875 -82.862594 -163.927219 -89.081344 -162.224094 -92.893844 C -160.520969 -96.706344 -157.520969 -102.745406 -155.501438 -106.436813 C -153.478 -110.132125 -149.981906 -115.96025 -147.649875 -119.507125 C -145.317844 -123.050094 -141.32175 -128.620406 -138.688938 -131.9915 C -136.056125 -135.358688 -131.591281 -140.624313 -128.673313 -143.796188 C -125.755344 -146.968063 -120.845188 -151.89775 -117.653781 -154.846969 C -114.466281 -157.796188 -109.126438 -162.343063 -105.685031 -165.042281 C -102.239719 -167.745406 -96.50925 -171.882125 -92.829563 -174.311813 C -89.149875 -176.745406 -83.056125 -180.425094 -79.161594 -182.565719 C -75.270969 -184.71025 -68.853 -187.921188 -64.770969 -189.753219 C -60.685031 -191.589156 -53.978 -194.284469 -49.728 -195.792281 C -45.478 -197.304 -38.528781 -199.464156 -34.138156 -200.636031 C -29.747531 -201.807906 -22.591281 -203.409469 -18.087375 -204.225875 C -13.583469 -205.046188 -6.270969 -206.073531 -1.681125 -206.526656 C 2.904812 -206.979781 10.330594 -207.417281 14.975125 -207.499313 C 19.61575 -207.58525 27.107937 -207.417281 31.775906 -207.124313 C 36.443875 -206.831344 43.955594 -206.054 48.619656 -205.382125 C 53.279812 -204.706344 60.756375 -203.319625 65.381375 -202.261031 C 70.006375 -201.206344 77.389187 -199.202438 81.947781 -197.764938 C 86.502469 -196.327438 93.760281 -193.718063 98.217312 -191.905563 C 102.674344 -190.093063 109.74075 -186.878219 114.064969 -184.698531 C 118.393094 -182.518844 125.225125 -178.721969 129.389187 -176.182906 C 133.55325 -173.643844 140.107937 -169.284469 144.080594 -166.39775 C 148.05325 -163.507125 154.268094 -158.589156 158.022 -155.370406 C 161.772 -152.14775 167.61575 -146.718063 171.11575 -143.182906 C 174.619656 -139.643844 180.037625 -133.714156 183.264187 -129.882125 C 186.494656 -126.046188 191.451687 -119.659469 194.377469 -115.550094 C 197.307156 -111.444625 201.760281 -104.632125 204.36575 -100.268844 C 206.967312 -95.909469 210.885281 -88.71025 213.143094 -84.124313 C 215.400906 -79.542281 218.752469 -72.007125 220.643094 -67.225875 C 222.537625 -62.440719 225.275906 -54.604781 226.787625 -49.651656 C 228.299344 -44.698531 230.420437 -36.6165 231.533719 -31.526656 C 232.647 -26.436813 234.11575 -18.155563 234.822781 -12.96025 C 235.525906 -7.761031 236.322781 0.656937 236.607937 5.926469 C 236.893094 11.196 237.022 19.711625 236.877469 25.020219 C 236.736844 30.332719 236.162625 38.879594 235.588406 44.196 C 235.014187 49.512406 233.748562 58.043656 232.744656 63.324906 C 231.74075 68.610062 229.779812 77.063187 228.342312 82.281937 C 226.904812 87.500687 224.248562 95.817094 222.385281 100.934281 C 220.522 106.051469 217.197781 114.180375 214.912625 119.160844 C 212.631375 124.141312 208.619656 132.016312 205.920437 136.824906 C 203.225125 141.6335 198.572781 149.207719 195.482937 153.813187 C 192.393094 158.418656 187.11575 165.645219 183.643094 170.0085 C 180.166531 174.375687 174.287625 181.180375 170.447781 185.278031 C 166.611844 189.375687 160.170437 195.735062 155.99075 199.531937 C 151.811062 203.328812 144.826687 209.172562 140.326687 212.641312 C 135.830594 216.106156 128.361844 221.410844 123.572781 224.524125 C 118.779812 227.637406 110.861844 232.344437 105.807156 235.074906 C 100.752469 237.809281 92.42825 241.8835 87.139187 244.215531 C 81.850125 246.543656 73.174344 249.969437 67.682156 251.879594 C 62.193875 253.785844 53.221219 256.496781 47.561062 257.961625 C 41.900906 259.426469 32.682156 261.434281 26.893094 262.446 C 21.100125 263.461625 11.705594 264.715531 5.818875 265.262406 C -0.0678438 265.809281 -9.591281 266.305375 -15.536594 266.379594 C -21.481906 266.449906 -31.07175 266.188187 -37.036594 265.778031 C -43.001438 265.367875 -52.587375 264.317094 -58.532688 263.422562 C -64.481906 262.528031 -74.013156 260.707719 -79.899875 259.328812 C -85.786594 257.949906 -95.181125 255.35225 -100.970188 253.496781 C -106.75925 251.637406 -115.974094 248.270219 -121.626438 245.938187 C -127.278781 243.610062 -136.239719 239.492875 -141.712375 236.699906 C -147.188938 233.906937 -155.829563 229.051469 -161.091281 225.809281 C -166.353 222.567094 -174.63425 217.0085 -179.645969 213.332719 C -184.657688 209.660844 -192.489719 203.41475 -197.212375 199.328812 C -201.938938 195.238969 -209.286594 188.35225 -213.692844 183.871781 C -218.095188 179.395219 -224.903781 171.895219 -228.954563 167.051469 C -233.005344 162.203812 -239.220188 154.137406 -242.888156 148.957719 C -246.552219 143.774125 -252.130344 135.192094 -255.388156 129.703812 C -258.642063 124.215531 -263.532688 115.156937 -266.349094 109.391312 C -269.1655 103.629594 -273.337375 94.16475 -275.692844 88.16475 C -278.052219 82.160844 -281.466281 72.340531 -283.341281 66.137406 C -285.216281 59.930375 -287.833469 49.817094 -289.212375 43.449906 C -290.591281 37.082719 -292.411594 26.735062 -293.278781 20.242875 C -294.145969 13.754594 -295.118625 3.242875 -295.458469 -3.327438 C -295.802219 -9.89775 -295.931125 -20.511031 -295.743625 -27.124313 C -295.556125 -33.737594 -294.829563 -44.382125 -294.106906 -50.9915 C -293.38425 -57.600875 -291.7905 -68.198531 -290.532688 -74.761031 C -289.278781 -81.323531 -286.837375 -91.819625 -285.048313 -98.292281 C -283.255344 -104.764938 -279.938938 -115.073531 -277.622531 -121.413375 C -275.302219 -127.753219 -271.1655 -137.815719 -268.333469 -143.979781 C -265.501438 -150.143844 -260.544406 -159.889938 -257.208469 -165.83525 C -253.872531 -171.780563 -248.110813 -181.139938 -244.286594 -186.823531 C -240.466281 -192.507125 -233.950656 -201.421188 -229.661594 -206.804 C -225.376438 -212.190719 -218.118625 -220.581344 -213.388156 -225.628219 C -208.657688 -230.675094 -200.716281 -238.503219 -195.57175 -243.175094 C -190.427219 -247.846969 -181.833469 -255.042281 -176.306125 -259.307906 C -170.774875 -263.573531 -161.591281 -270.081344 -155.708469 -273.905563 C -149.825656 -277.733688 -140.106906 -283.52275 -133.907688 -286.878219 C -127.708469 -290.233688 -117.501438 -295.225875 -111.017063 -298.08525 C -104.536594 -300.940719 -93.907688 -305.136031 -87.185031 -307.475875 C -80.462375 -309.815719 -69.485813 -313.151656 -62.567844 -314.952438 C -55.645969 -316.753219 -44.380344 -319.202438 -37.306125 -320.448531 C -30.228 -321.690719 -18.751438 -323.245406 -11.567844 -323.917281 C -4.38425 -324.593063 7.225125 -325.206344 14.475125 -325.300094 C 21.725125 -325.39775 33.408719 -325.096969 40.67825 -324.604781 C 47.947781 -324.1165 59.619656 -322.846969 66.857937 -321.768844 C 74.096219 -320.690719 85.682156 -318.4915 92.846219 -316.827438 C 100.006375 -315.163375 111.436062 -312.026656 118.471219 -309.780563 C 125.506375 -307.534469 136.689969 -303.46025 143.557156 -300.643844 C 150.420437 -297.831344 161.295437 -292.8665 167.943875 -289.4915 C 174.588406 -286.120406 185.064969 -280.257125 191.443875 -276.339156 C 197.826687 -272.425094 207.850125 -265.71025 213.924344 -261.276656 C 219.998562 -256.843063 229.506375 -249.323531 235.229031 -244.393844 C 240.947781 -239.464156 249.8345 -231.151656 255.166531 -225.753219 C 260.498562 -220.358688 268.748562 -211.327438 273.650906 -205.495406 C 278.557156 -199.663375 286.068875 -189.952438 290.502469 -183.714156 C 294.939969 -177.479781 301.67825 -167.151656 305.61575 -160.554 C 309.557156 -153.952438 315.479031 -143.073531 318.889187 -136.14775 C 322.299344 -129.221969 327.338406 -117.846969 330.197781 -110.636031 C 333.05325 -103.429 337.197781 -91.632125 339.475125 -84.186813 C 341.752469 -76.737594 344.92825 -64.604781 346.604031 -56.968063 C 348.279812 -49.327438 350.494656 -36.925094 351.557156 -29.143844 C 352.623562 -21.362594 353.842312 -8.761031 354.279812 -0.886031 C 354.713406 6.988969 354.904812 19.688187 354.705594 27.606156 C 354.506375 35.524125 353.686062 48.262406 352.850125 56.172562 C 352.010281 64.082719 350.147 76.7585 348.670437 84.610062 C 347.193875 92.461625 344.318875 105.016312 342.2095 112.754594 C 340.100125 120.492875 336.201687 132.813187 333.463406 140.387406 C 330.729031 147.961625 325.830594 159.985062 322.479031 167.348344 C 319.131375 174.707719 313.268094 186.356156 309.322781 193.453812 C 305.373562 200.551469 298.557156 211.711625 294.029812 218.496781 C 289.506375 225.281937 281.787625 235.926469 276.713406 242.356156 C 271.639187 248.781937 263.057156 258.801469 257.4595 264.821 C 251.86575 270.844437 242.463406 280.176469 236.377469 285.754594 C 230.291531 291.332719 220.135281 299.934281 213.596219 305.024125 C 207.05325 310.113969 196.189969 317.875687 189.232937 322.438187 C 182.272 327.004594 170.775906 333.910844 163.443875 337.922562 C 156.111844 341.934281 144.05325 347.922562 136.393094 351.344437 C 128.732937 354.766312 116.174344 359.770219 108.232937 362.578812 C 100.295437 365.3835 87.3345 369.406937 79.158719 371.574906 C 70.986844 373.742875 57.67825 376.692094 49.326687 378.199906 C 40.971219 379.711625 27.424344 381.610062 18.943875 382.446 C 10.463406 383.285844 -3.235813 384.086625 -11.7905 384.242875 C -20.345188 384.395219 -34.130344 384.094437 -42.700656 383.563187 C -51.274875 383.028031 -65.048313 381.625687 -73.583469 380.395219 C -82.118625 379.168656 -95.778781 376.637406 -104.220188 374.719437 C -112.661594 372.801469 -126.138156 369.180375 -134.431125 366.586625 C -142.728 363.988969 -155.907688 359.270219 -163.997531 356.000687 C -172.083469 352.735062 -184.899875 346.949906 -192.731906 343.028031 C -200.563938 339.106156 -212.919406 332.297562 -220.435031 327.742875 C -227.954563 323.188187 -239.763156 315.367875 -246.919406 310.203812 C -254.075656 305.03975 -265.270969 296.270219 -272.017063 290.528031 C -278.75925 284.785844 -289.239719 275.106156 -295.520969 268.817094 C -301.806125 262.524125 -311.524875 251.992875 -317.310031 245.196 C -323.091281 238.395219 -331.962375 227.082719 -337.19675 219.817094 C -342.435031 212.547562 -350.392063 200.504594 -355.044406 192.809281 C -359.69675 185.113969 -366.69675 172.430375 -370.731906 164.356156 C -374.767063 156.285844 -380.743625 143.028031 -384.130344 134.625687 C -387.517063 126.223344 -392.427219 112.47725 -395.142063 103.797562 C -397.853 95.121781 -401.661594 80.97725 -403.673313 72.074906 C -405.688938 63.176469 -408.345188 48.711625 -409.642063 39.645219 C -410.938938 30.578812 -412.454563 15.906937 -413.020969 6.731156 C -413.587375 -2.440719 -413.899875 -17.249313 -413.728 -26.475875 C -413.552219 -35.698531 -412.677219 -50.538375 -411.763156 -59.753219 C -410.849094 -68.964156 -408.7905 -83.733688 -407.13425 -92.874313 C -405.474094 -102.018844 -402.208469 -116.632125 -399.813938 -125.64775 C -397.419406 -134.659469 -392.997531 -149.02275 -389.872531 -157.850875 C -386.751438 -166.675094 -381.142063 -180.675094 -377.306125 -189.249313 C -373.470188 -197.823531 -366.747531 -211.386031 -362.220188 -219.655563 C -357.69675 -227.925094 -349.880344 -240.944625 -344.685031 -248.850875 C -339.489719 -256.757125 -330.614719 -269.14775 -324.782688 -276.639938 C -318.950656 -284.128219 -309.087375 -295.819625 -302.649875 -302.839156 C -296.216281 -309.862594 -285.395969 -320.7415 -278.392063 -327.249313 C -271.38425 -333.753219 -259.685031 -343.784469 -252.153781 -349.733688 C -244.622531 -355.679 -232.126438 -364.764938 -224.114719 -370.100875 C -216.103 -375.440719 -202.856906 -383.511031 -194.411594 -388.206344 C -185.966281 -392.901656 -172.079563 -399.932906 -163.255344 -403.948531 C -154.431125 -407.964156 -139.966281 -413.846969 -130.817844 -417.151656 C -121.6655 -420.456344 -106.724094 -425.198531 -97.306125 -427.768844 C -87.892063 -430.339156 -72.57175 -433.870406 -62.94675 -435.682906 C -53.32175 -437.4915 -37.712375 -439.780563 -27.938938 -440.819625 C -18.1655 -441.858688 -2.364719 -442.917281 7.494656 -443.171188 C 17.350125 -443.421188 33.232937 -443.171188 43.111844 -442.628219 C 52.994656 -442.08525 68.861844 -440.58525 78.701687 -439.245406 C 88.541531 -437.905563 104.291531 -435.108688 114.022 -432.975875 C 123.756375 -430.843063 139.287625 -426.784469 148.850125 -423.870406 C 158.408719 -420.952438 173.61575 -415.651656 182.943875 -411.968063 C 192.268094 -408.284469 207.041531 -401.745406 216.072781 -397.307906 C 225.104031 -392.870406 239.36575 -385.14775 248.041531 -379.983688 C 256.717312 -374.819625 270.342312 -365.952438 278.600125 -360.08525 C 286.857937 -354.221969 299.775906 -344.2415 307.564969 -337.71025 C 315.354031 -331.182906 327.479031 -320.182906 334.74075 -313.026656 C 342.006375 -305.870406 353.229031 -293.874313 359.916531 -286.132125 C 366.604031 -278.389938 376.881375 -265.495406 382.943875 -257.218063 C 389.010281 -248.936813 398.229031 -235.221969 403.627469 -226.452438 C 409.022 -217.682906 417.147 -203.221969 421.838406 -194.018844 C 426.533719 -184.815719 433.502469 -169.702438 437.455594 -160.120406 C 441.404812 -150.538375 447.135281 -134.854781 450.314969 -124.956344 C 453.494656 -115.054 457.99075 -98.917281 460.373562 -88.764938 C 462.760281 -78.608688 465.932156 -62.108688 467.494656 -51.761031 C 469.061062 -41.413375 470.920437 -24.655563 471.650906 -14.182906 C 472.385281 -3.714156 472.889187 13.176469 472.775906 23.707719 C 472.662625 34.235062 471.80325 51.180375 470.846219 61.703812 C 469.889187 72.223344 467.682156 89.10225 465.877469 99.547562 C 464.072781 109.992875 460.482937 126.680375 457.838406 136.981156 C 455.189969 147.278031 450.268094 163.684281 446.795437 173.770219 C 443.318875 183.85225 437.088406 199.85225 432.80325 209.656937 C 428.518094 219.461625 420.979031 234.969437 415.904812 244.426469 C 410.830594 253.887406 402.064969 268.781937 396.232937 277.828812 C 390.397 286.875687 380.408719 301.051469 373.842312 309.629594 C 367.279812 318.203812 356.174344 331.586625 348.924344 339.637406 C 341.674344 347.684281 329.482937 360.176469 321.5845 367.637406 C 313.686062 375.10225 300.486844 386.60225 291.99075 393.430375 C 283.494656 400.2585 269.389187 410.711625 260.342312 416.856156 C 251.295437 422.996781 236.3345 432.281937 226.791531 437.692094 C 217.252469 443.10225 201.557156 451.203812 191.5845 455.848344 C 181.611844 460.492875 165.264187 467.324906 154.916531 471.16475 C 144.572781 475.004594 127.67825 480.520219 117.029812 483.528031 C 106.377469 486.535844 89.045437 490.703812 78.154812 492.85225 C 67.264187 495.000687 49.592312 497.735062 38.529812 499.0085 C 27.471219 500.278031 9.596219 501.637406 -1.563938 502.020219 C -12.724094 502.403031 -30.716281 502.285844 -41.903781 501.766312 C -53.095188 501.250687 -71.067844 499.703812 -82.212375 498.28975 C -93.356906 496.879594 -111.204563 493.899125 -122.231906 491.586625 C -133.263156 489.270219 -150.860813 484.824906 -161.700656 481.621781 C -172.5405 478.418656 -189.786594 472.582719 -200.364719 468.5085 C -210.942844 464.438187 -227.69675 457.203812 -237.94675 452.278031 C -248.19675 447.356156 -264.376438 438.770219 -274.228 433.028031 C -284.079563 427.285844 -299.57175 417.422562 -308.954563 410.887406 C -318.337375 404.348344 -333.00925 393.211625 -341.864719 385.922562 C -350.720188 378.6335 -364.517063 366.35225 -372.786594 358.356156 C -381.052219 350.356156 -393.833469 336.953812 -401.450656 328.28975 C -409.07175 319.629594 -420.774875 305.199906 -427.69675 295.926469 C -434.622531 286.656937 -445.177219 271.293656 -451.349094 261.469437 C -457.524875 251.641312 -466.817844 235.422562 -472.19675 225.106156 C -477.575656 214.78975 -485.579563 197.85225 -490.130344 187.106156 C -494.677219 176.356156 -501.302219 158.754594 -504.985813 147.645219 C -508.669406 136.531937 -513.88425 118.422562 -516.673313 107.020219 C -519.462375 95.617875 -523.216281 77.098344 -525.087375 65.47725 C -526.954563 53.85225 -529.200656 35.020219 -530.138156 23.254594 C -531.07175 11.488969 -531.833469 -7.4915 -531.82175 -19.327438 C -531.810031 -31.163375 -531.013156 -50.214156 -530.044406 -62.046188 C -529.079563 -73.878219 -526.770969 -92.854781 -524.856906 -104.604781 C -522.938938 -116.354781 -519.106906 -135.139938 -516.243625 -146.729781 C -513.380344 -158.323531 -508.017063 -176.784469 -504.224094 -188.139938 C -500.435031 -199.495406 -493.622531 -217.530563 -488.919406 -228.577438 C -484.216281 -239.624313 -475.9155 -257.089156 -470.325656 -267.749313 C -464.731906 -278.413375 -455.063938 -295.214156 -448.618625 -305.425094 C -442.177219 -315.632125 -431.145969 -331.639938 -423.880344 -341.327438 C -416.614719 -351.011031 -404.298313 -366.128219 -396.25925 -375.221969 C -388.220188 -384.319625 -374.712375 -398.444625 -365.94675 -406.889938 C -357.181125 -415.33525 -342.528781 -428.358688 -333.083469 -436.096969 C -323.642063 -443.831344 -307.94675 -455.671188 -297.88425 -462.643844 C -287.825656 -469.6165 -271.185031 -480.194625 -260.567844 -486.358688 C -249.954563 -492.518844 -232.478 -501.737594 -221.372531 -507.046188 C -210.270969 -512.350875 -192.07175 -520.186813 -180.544406 -524.596969 C -169.017063 -529.003219 -150.173313 -535.33525 -138.294406 -538.811813 C -126.419406 -542.292281 -107.095188 -547.139938 -94.94675 -549.663375 C -82.798313 -552.182906 -63.091281 -555.452438 -50.747531 -556.995406 C -38.399875 -558.534469 -18.435031 -560.221969 -5.974094 -560.77275 C 6.486844 -561.323531 26.568875 -561.417281 39.068875 -560.964156 C 51.564969 -560.511031 71.650906 -558.964156 84.107937 -557.507125 C 96.564969 -556.046188 116.514187 -552.913375 128.846219 -550.456344 C 141.17825 -547.999313 160.86575 -543.249313 172.99075 -539.796188 C 185.119656 -536.346969 204.400906 -530.007125 216.244656 -525.589156 C 228.088406 -521.167281 246.873562 -513.307906 258.354031 -507.936813 C 269.838406 -502.565719 287.963406 -493.167281 299.006375 -486.874313 C 310.049344 -480.581344 327.412625 -469.757125 337.943875 -462.581344 C 348.471219 -455.405563 364.955594 -443.175094 374.897 -435.155563 C 384.842312 -427.136031 400.322781 -413.589156 409.619656 -404.776656 C 418.912625 -395.964156 433.307156 -381.198531 441.889187 -371.643844 C 450.471219 -362.08525 463.662625 -346.14775 471.471219 -335.909469 C 479.275906 -325.667281 491.182156 -308.702438 498.162625 -297.839156 C 505.139187 -286.979781 515.658719 -269.042281 521.760281 -257.624313 C 527.861844 -246.206344 536.955594 -227.448531 542.135281 -215.550094 C 547.318875 -203.655563 554.885281 -184.190719 559.104031 -171.882125 C 563.322781 -159.573531 569.307156 -139.487594 572.537625 -126.846969 C 575.764187 -114.206344 580.158719 -93.671188 582.369656 -80.780563 C 584.580594 -67.893844 587.299344 -47.011031 588.467312 -33.956344 C 589.639187 -20.89775 590.682156 0.176469 590.80325 13.317094 C 590.924344 26.461625 590.279812 47.617875 589.346219 60.762406 C 588.408719 73.906937 586.049344 94.988969 584.057156 108.047562 C 582.064969 121.110062 578.029812 142.000687 574.986844 154.891312 C 571.947781 167.785844 566.217312 188.332719 562.143094 200.969437 C 558.064969 213.606156 550.701687 233.680375 545.61575 245.981156 C 540.529812 258.281937 531.549344 277.750687 525.475125 289.6335 C 519.397 301.512406 508.850125 320.231156 501.826687 331.617875 C 494.80325 343.004594 482.787625 360.879594 474.854031 371.696 C 466.920437 382.5085 453.443875 399.395219 444.643094 409.563187 C 435.842312 419.72725 421.041531 435.520219 411.432156 444.973344 C 401.822781 454.426469 385.744656 469.020219 375.381375 477.692094 C 365.018094 486.363969 347.791531 499.641312 336.74075 507.47725 C 325.689969 515.309281 307.412625 527.22725 295.74075 534.16475 C 284.068875 541.106156 264.8345 551.492875 252.611844 557.488969 C 240.389187 563.485062 220.342312 572.363969 207.647 577.371781 C 194.951687 582.3835 174.201687 589.621781 161.11575 593.60225 C 148.025906 597.582719 126.717312 603.145219 113.318875 606.074906 C 99.920437 609.004594 78.174344 612.875687 64.549344 614.723344 C 50.92825 616.574906 28.893094 618.660844 15.135281 619.410844 C 1.381375 620.160844 -20.794406 620.492875 -34.603 620.141312 C -48.411594 619.78975 -70.606906 618.340531 -84.376438 616.875687 C -98.145969 615.41475 -120.212375 612.16475 -133.856906 609.598344 C -147.501438 607.031937 -169.282688 602.035844 -182.704563 598.375687 C -196.130344 594.711625 -217.485813 587.934281 -230.603 583.192094 C -243.720188 578.453812 -264.520969 570.000687 -277.251438 564.211625 C -289.978 558.422562 -310.087375 548.274125 -322.341281 541.465531 C -334.591281 534.656937 -353.856906 522.922562 -365.552219 515.137406 C -377.247531 507.35225 -395.567844 494.071 -406.626438 485.35225 C -417.685031 476.629594 -434.903781 461.8835 -445.251438 452.281937 C -455.599094 442.680375 -471.638156 426.578812 -481.208469 416.153031 C -490.774875 405.731156 -505.485813 388.344437 -514.204563 377.156937 C -522.923313 365.969437 -536.235813 347.406937 -544.048313 335.531937 C -551.864719 323.656937 -563.677219 304.059281 -570.528781 291.563187 C -577.380344 279.071 -587.587375 258.520219 -593.427219 245.485062 C -599.270969 232.449906 -607.849094 211.117875 -612.642063 197.625687 C -617.431125 184.1335 -624.25925 162.106156 -627.958469 148.238969 C -631.657688 134.371781 -636.728 111.840531 -639.313938 97.692094 C -641.899875 83.543656 -645.145969 60.606156 -646.591281 46.262406 C -648.036594 31.918656 -649.427219 8.754594 -649.720188 -5.690719 C -650.013156 -20.136031 -649.563938 -43.389938 -648.692844 -57.846969 C -647.825656 -72.304 -645.485813 -95.511031 -643.450656 -109.889938 C -641.419406 -124.264938 -637.228 -147.257125 -634.044406 -161.46025 C -630.860813 -175.659469 -624.829563 -198.307906 -620.505344 -212.233688 C -616.181125 -226.163375 -608.313938 -248.284469 -602.876438 -261.850875 C -597.438938 -275.417281 -587.833469 -296.901656 -581.310031 -310.018844 C -574.782688 -323.139938 -563.431125 -343.831344 -555.856906 -356.413375 C -548.282688 -368.999313 -535.298313 -388.753219 -526.716281 -400.714156 C -518.138156 -412.675094 -503.560031 -431.370406 -494.028781 -442.632125 C -484.497531 -453.889938 -468.44675 -471.389938 -458.020969 -481.874313 C -447.599094 -492.358688 -430.1655 -508.561813 -418.907688 -518.198531 C -407.649875 -527.83525 -388.903781 -542.604781 -376.880344 -551.327438 C -364.856906 -560.050094 -344.970188 -573.307906 -332.25925 -581.057906 C -319.548313 -588.807906 -298.595188 -600.464156 -285.270969 -607.182906 C -271.950656 -613.901656 -250.095188 -623.843063 -236.243625 -629.487594 C -222.395969 -635.132125 -199.751438 -643.331344 -185.462375 -647.854781 C -171.173313 -652.378219 -147.892063 -658.721969 -133.255344 -662.093063 C -118.618625 -665.464156 -94.868625 -669.964156 -79.978 -672.155563 C -65.083469 -674.346969 -40.974094 -676.905563 -25.919406 -677.89775 C -10.868625 -678.889938 13.404812 -679.514938 28.522 -679.300094 C 43.635281 -679.08525 67.939969 -677.788375 83.025906 -676.354781 C 98.11575 -674.921188 122.299344 -671.620406 137.252469 -668.971969 C 152.2095 -666.327438 176.092312 -661.120406 190.822781 -657.280563 C 205.549344 -653.440719 229.002469 -646.311813 243.408719 -641.288375 C 257.814969 -636.268844 280.662625 -627.253219 294.650906 -621.081344 C 308.639187 -614.905563 330.752469 -604.093063 344.225125 -596.800094 C 357.701687 -589.511031 378.897 -576.89775 391.768094 -568.530563 C 404.643094 -560.163375 424.822781 -545.882125 437.014187 -536.4915 C 449.205594 -527.100875 468.217312 -511.206344 479.639187 -500.846969 C 491.061062 -490.483688 508.756375 -473.073531 519.338406 -461.804 C 529.916531 -450.538375 546.232937 -431.7415 555.897 -419.636031 C 565.561062 -407.530563 580.30325 -387.425094 588.979031 -374.554 C 597.658719 -361.682906 610.80325 -340.425094 618.439969 -326.870406 C 626.076687 -313.315719 637.475125 -291.014938 644.014187 -276.858688 C 650.55325 -262.706344 660.166531 -239.526656 665.561062 -224.862594 C 670.9595 -210.198531 678.705594 -186.261031 682.912625 -171.179 C 687.119656 -156.096969 692.900906 -131.565719 695.893094 -116.163375 C 698.885281 -100.764938 702.725125 -75.804 704.479031 -60.182906 C 706.236844 -44.557906 708.545437 -3.557906 708.545437 -3.557906 " transform="matrix(1,0,0,-1,709.103,680.071)"/>
</g>
<path style="fill:none;stroke-width:1.13385;stroke-linecap:butt;stroke-linejoin:miter;stroke:rgb(100%,100%,100%);stroke-opacity:1;stroke-miterlimit:10;" d="M -0.0014375 0.0006875 C -0.0014375 0.0006875 -1.091281 -0.054 -1.501438 -0.120406 C -1.9155 -0.186813 -2.575656 -0.346969 -2.978 -0.479781 C -3.376438 -0.612594 -4.00925 -0.882125 -4.392063 -1.077438 C -4.774875 -1.27275 -5.368625 -1.643844 -5.724094 -1.901656 C -6.075656 -2.159469 -6.622531 -2.624313 -6.938938 -2.940719 C -7.25925 -3.261031 -7.739719 -3.815719 -8.017063 -4.186813 C -8.294406 -4.557906 -8.704563 -5.198531 -8.935031 -5.6165 C -9.161594 -6.038375 -9.489719 -6.753219 -9.661594 -7.218063 C -9.837375 -7.682906 -10.07175 -8.464156 -10.185031 -8.964156 C -10.298313 -9.468063 -10.431125 -10.304 -10.481906 -10.83525 C -10.528781 -11.3665 -10.556125 -12.249313 -10.536594 -12.804 C -10.517063 -13.358688 -10.431125 -14.27275 -10.341281 -14.843063 C -10.247531 -15.417281 -10.044406 -16.346969 -9.876438 -16.925094 C -9.712375 -17.507125 -9.38425 -18.444625 -9.142063 -19.02275 C -8.899875 -19.600875 -8.450656 -20.530563 -8.130344 -21.100875 C -7.810031 -21.671188 -7.235813 -22.577438 -6.841281 -23.128219 C -6.44675 -23.682906 -5.747531 -24.554 -5.278781 -25.077438 C -4.806125 -25.604781 -3.985813 -26.425094 -3.442844 -26.917281 C -2.895969 -27.405563 -1.962375 -28.163375 -1.345188 -28.612594 C -0.728 -29.057906 0.314969 -29.7415 0.998562 -30.136031 C 1.682156 -30.530563 2.8345 -31.120406 3.580594 -31.456344 C 4.326687 -31.788375 5.576687 -32.280563 6.381375 -32.546188 C 7.186062 -32.811813 8.522 -33.190719 9.373562 -33.382125 C 10.229031 -33.573531 11.643094 -33.823531 12.541531 -33.936813 C 13.439969 -34.050094 14.920437 -34.167281 15.854031 -34.190719 C 16.791531 -34.218063 18.322781 -34.190719 19.283719 -34.124313 C 20.248562 -34.057906 21.818875 -33.878219 22.80325 -33.718063 C 23.783719 -33.557906 25.377469 -33.218063 26.369656 -32.96025 C 27.36575 -32.698531 28.967312 -32.202438 29.9595 -31.839156 C 30.955594 -31.475875 32.549344 -30.811813 33.533719 -30.346969 C 34.518094 -29.882125 36.088406 -29.050094 37.049344 -28.483688 C 38.014187 -27.913375 39.545437 -26.917281 40.479031 -26.245406 C 41.412625 -25.569625 42.885281 -24.405563 43.779812 -23.632125 C 44.670437 -22.854781 46.068875 -21.530563 46.908719 -20.655563 C 47.752469 -19.780563 49.061062 -18.296188 49.838406 -17.327438 C 50.619656 -16.354781 51.818875 -14.718063 52.525906 -13.655563 C 53.232937 -12.593063 54.311062 -10.815719 54.936062 -9.667281 C 55.561062 -8.514938 56.498562 -6.604781 57.033719 -5.374313 C 57.568875 -4.14775 58.354031 -2.112594 58.791531 -0.811813 C 59.225125 0.488969 59.842312 2.6335 60.170437 4.000687 C 60.494656 5.363969 60.932156 7.610062 61.147 9.028031 C 61.357937 10.449906 61.607937 12.770219 61.697781 14.238969 C 61.787625 15.703812 61.830594 18.090531 61.791531 19.590531 C 61.752469 21.090531 61.592312 23.524125 61.420437 25.047562 C 61.248562 26.571 60.869656 29.031937 60.564969 30.567094 C 60.256375 32.098344 59.650906 34.571 59.205594 36.106156 C 58.760281 37.637406 57.932156 40.098344 57.346219 41.617875 C 56.756375 43.137406 55.697781 45.567094 54.971219 47.059281 C 54.24075 48.551469 52.955594 50.926469 52.0845 52.379594 C 51.217312 53.832719 49.705594 56.1335 48.697781 57.535844 C 47.686062 58.934281 45.955594 61.141312 44.807156 62.47725 C 43.662625 63.813187 41.717312 65.903031 40.436062 67.160844 C 39.158719 68.41475 37.002469 70.363969 35.596219 71.528031 C 34.193875 72.696 31.838406 74.492875 30.314969 75.555375 C 28.791531 76.613969 26.248562 78.231156 24.611844 79.176469 C 22.975125 80.121781 20.260281 81.547562 18.518094 82.367875 C 16.779812 83.184281 13.904812 84.399125 12.072781 85.078812 C 10.24075 85.7585 7.225125 86.738969 5.311062 87.274125 C 3.397 87.809281 0.260281 88.551469 -1.724094 88.930375 C -3.708469 89.309281 -6.950656 89.785844 -8.993625 90.000687 C -11.036594 90.215531 -14.360813 90.434281 -16.44675 90.47725 C -18.532688 90.524125 -21.9155 90.457719 -24.028781 90.328812 C -26.145969 90.196 -29.563938 89.844437 -31.692844 89.531937 C -33.82175 89.219437 -37.251438 88.574906 -39.380344 88.082719 C -41.505344 87.586625 -44.919406 86.641312 -47.032688 85.961625 C -49.142063 85.281937 -52.517063 84.047562 -54.595188 83.180375 C -56.673313 82.317094 -59.981906 80.781937 -62.00925 79.731156 C -64.036594 78.680375 -67.251438 76.848344 -69.216281 75.617875 C -71.177219 74.3835 -74.274875 72.266312 -76.157688 70.860062 C -78.036594 69.449906 -80.985813 67.043656 -82.767063 65.461625 C -84.548313 63.879594 -87.333469 61.203812 -89.001438 59.457719 C -90.669406 57.711625 -93.255344 54.778031 -94.794406 52.871781 C -96.333469 50.969437 -98.700656 47.785844 -100.095188 45.731156 C -101.493625 43.680375 -103.618625 40.270219 -104.860813 38.082719 C -106.099094 35.895219 -107.958469 32.270219 -109.024875 29.957719 C -110.091281 27.645219 -111.669406 23.832719 -112.556125 21.410844 C -113.442844 18.985062 -114.716281 15.004594 -115.407688 12.485062 C -116.099094 9.961625 -117.052219 5.840531 -117.5405 3.238969 C -118.028781 0.637406 -118.657688 -3.596969 -118.935031 -6.261031 C -119.212375 -8.929 -119.481906 -13.261031 -119.5405 -15.971969 C -119.595188 -18.686813 -119.517063 -23.073531 -119.353 -25.815719 C -119.185031 -28.557906 -118.735813 -32.979781 -118.341281 -35.729781 C -117.94675 -38.483688 -117.126438 -42.901656 -116.501438 -45.643844 C -115.876438 -48.386031 -114.685031 -52.780563 -113.825656 -55.4915 C -112.970188 -58.206344 -111.403781 -62.538375 -110.310031 -65.202438 C -109.220188 -67.8665 -107.286594 -72.100875 -105.966281 -74.698531 C -104.645969 -77.292281 -102.345188 -81.405563 -100.798313 -83.913375 C -99.255344 -86.417281 -96.595188 -90.370406 -94.829563 -92.77275 C -93.067844 -95.171188 -90.060031 -98.936813 -88.083469 -101.21025 C -86.106906 -103.483688 -82.763156 -107.026656 -80.587375 -109.155563 C -78.407688 -111.280563 -74.751438 -114.577438 -72.380344 -116.538375 C -70.00925 -118.503219 -66.048313 -121.52275 -63.497531 -123.304 C -60.94675 -125.08525 -56.712375 -127.800094 -53.997531 -129.386031 C -51.282688 -130.971969 -46.794406 -133.358688 -43.927219 -134.733688 C -41.060031 -136.104781 -36.341281 -138.132125 -33.341281 -139.280563 C -30.341281 -140.429 -25.423313 -142.089156 -22.306125 -142.995406 C -19.192844 -143.905563 -14.103 -145.167281 -10.892063 -145.823531 C -7.681125 -146.479781 -2.454563 -147.339156 0.830594 -147.737594 C 4.119656 -148.136031 9.451687 -148.565719 12.795437 -148.698531 C 16.135281 -148.827438 21.537625 -148.823531 24.912625 -148.682906 C 28.287625 -148.538375 33.729031 -148.093063 37.111844 -147.671188 C 40.498562 -147.253219 45.936062 -146.350875 49.307156 -145.651656 C 52.67825 -144.948531 58.076687 -143.593063 61.412625 -142.612594 C 64.748562 -141.628219 70.072781 -139.831344 73.346219 -138.569625 C 76.623562 -137.307906 81.830594 -135.054 85.025906 -133.514938 C 88.217312 -131.979781 93.272 -129.292281 96.357937 -127.483688 C 99.443875 -125.671188 104.30325 -122.546188 107.260281 -120.471969 C 110.217312 -118.401656 114.857937 -114.862594 117.658719 -112.534469 C 120.463406 -110.21025 124.8345 -106.27275 127.463406 -103.702438 C 130.092312 -101.132125 134.170437 -96.807906 136.604031 -94.011031 C 139.037625 -91.21025 142.791531 -86.534469 145.010281 -83.518844 C 147.229031 -80.503219 150.607937 -75.4915 152.592312 -72.276656 C 154.576687 -69.061813 157.572781 -63.745406 159.30325 -60.350875 C 161.037625 -56.96025 163.611844 -51.370406 165.076687 -47.815719 C 166.537625 -44.261031 168.666531 -38.432906 169.850125 -34.7415 C 171.029812 -31.050094 172.705594 -25.011031 173.592312 -21.202438 C 174.475125 -17.393844 175.650906 -11.186813 176.229031 -7.288375 C 176.807156 -3.389938 177.494656 2.938187 177.756375 6.906937 C 178.022 10.871781 178.189969 17.293656 178.131375 21.301469 C 178.068875 25.313187 177.713406 31.778031 177.322781 35.805375 C 176.936062 39.828812 176.057156 46.297562 175.338406 50.313187 C 174.623562 54.324906 173.201687 60.754594 172.150906 64.731156 C 171.104031 68.703812 169.154812 75.047562 167.775906 78.953812 C 166.400906 82.863969 163.92825 89.078812 162.225125 92.891312 C 160.518094 96.707719 157.522 102.746781 155.498562 106.438187 C 153.479031 110.129594 149.982937 115.961625 147.647 119.5085 C 145.314969 123.051469 141.322781 128.617875 138.689969 131.988969 C 136.057156 135.360062 131.592312 140.625687 128.674344 143.797562 C 125.756375 146.969437 120.846219 151.899125 117.654812 154.848344 C 114.463406 157.793656 109.127469 162.340531 105.682156 165.043656 C 102.24075 167.742875 96.510281 171.8835 92.830594 174.313187 C 89.150906 176.746781 83.057156 180.426469 79.162625 182.567094 C 75.268094 184.711625 68.854031 187.918656 64.772 189.754594 C 60.686062 191.590531 53.979031 194.281937 49.729031 195.793656 C 45.479031 197.301469 38.529812 199.465531 34.139187 200.637406 C 29.748562 201.805375 22.588406 203.410844 18.0845 204.22725 C 13.5845 205.043656 6.268094 206.071 1.682156 206.528031 C -2.903781 206.981156 -10.333469 207.418656 -14.974094 207.500687 C -19.618625 207.582719 -27.110813 207.418656 -31.778781 207.125687 C -36.44675 206.828812 -43.954563 206.055375 -48.618625 205.379594 C -53.278781 204.707719 -60.755344 203.317094 -65.380344 202.262406 C -70.005344 201.203812 -77.388156 199.199906 -81.94675 197.762406 C -86.501438 196.328812 -93.763156 193.719437 -98.216281 191.906937 C -102.673313 190.094437 -109.743625 186.879594 -114.067844 184.699906 C -118.392063 182.516312 -125.224094 178.723344 -129.388156 176.184281 C -133.552219 173.645219 -140.110813 169.285844 -144.083469 166.395219 C -148.056125 163.5085 -154.270969 158.590531 -158.020969 155.367875 C -161.770969 152.149125 -167.614719 146.719437 -171.118625 143.180375 C -174.618625 139.645219 -180.036594 133.715531 -183.267063 129.879594 C -186.493625 126.047562 -191.450656 119.660844 -194.380344 115.551469 C -197.306125 111.442094 -201.763156 104.629594 -204.364719 100.270219 C -206.970188 95.910844 -210.88425 88.711625 -213.142063 84.125687 C -215.399875 79.53975 -218.751438 72.0085 -220.645969 67.22725 C -222.536594 62.442094 -225.274875 54.60225 -226.786594 49.649125 C -228.298313 44.696 -230.419406 36.617875 -231.532688 31.528031 C -232.649875 26.438187 -234.118625 18.156937 -234.82175 12.957719 C -235.524875 7.762406 -236.32175 -0.655563 -236.606906 -5.925094 C -236.892063 -11.194625 -237.020969 -19.71025 -236.880344 -25.02275 C -236.739719 -30.331344 -236.161594 -38.882125 -235.587375 -44.194625 C -235.013156 -49.511031 -233.751438 -58.042281 -232.743625 -63.327438 C -231.739719 -68.608688 -229.782688 -77.061813 -228.345188 -82.280563 C -226.907688 -87.499313 -224.251438 -95.815719 -222.388156 -100.932906 C -220.524875 -106.050094 -217.200656 -114.182906 -214.9155 -119.163375 C -212.630344 -124.139938 -208.618625 -132.014938 -205.923313 -136.823531 C -203.224094 -141.632125 -198.575656 -149.21025 -195.481906 -153.811813 C -192.392063 -158.417281 -187.114719 -165.643844 -183.642063 -170.007125 C -180.169406 -174.374313 -174.286594 -181.182906 -170.450656 -185.276656 C -166.614719 -189.374313 -160.169406 -195.733688 -155.993625 -199.530563 C -151.813938 -203.327438 -144.825656 -209.171188 -140.325656 -212.639938 C -135.829563 -216.108688 -128.360813 -221.409469 -123.57175 -224.52275 C -118.782688 -227.636031 -110.860813 -232.343063 -105.806125 -235.077438 C -100.751438 -237.807906 -92.427219 -241.882125 -87.138156 -244.214156 C -81.849094 -246.546188 -73.173313 -249.971969 -67.685031 -251.878219 C -62.192844 -253.784469 -53.220188 -256.495406 -47.560031 -257.96025 C -41.899875 -259.429 -32.685031 -261.432906 -26.892063 -262.448531 C -21.099094 -263.46025 -11.704563 -264.718063 -5.817844 -265.261031 C 0.068875 -265.807906 9.592312 -266.307906 15.537625 -266.378219 C 21.482937 -266.452438 31.072781 -266.190719 37.037625 -265.780563 C 43.002469 -265.370406 52.588406 -264.315719 58.533719 -263.421188 C 64.482937 -262.526656 74.010281 -260.706344 79.900906 -259.327438 C 85.787625 -257.952438 95.182156 -255.354781 100.971219 -253.495406 C 106.760281 -251.636031 115.971219 -248.268844 121.627469 -245.940719 C 127.279812 -243.608688 136.236844 -239.4915 141.713406 -236.698531 C 147.189969 -233.905563 155.826687 -229.054 161.092312 -225.811813 C 166.354031 -222.569625 174.635281 -217.011031 179.647 -213.33525 C 184.658719 -209.659469 192.49075 -203.417281 197.213406 -199.327438 C 201.936062 -195.2415 209.287625 -188.350875 213.693875 -183.870406 C 218.096219 -179.393844 224.904812 -171.893844 228.955594 -167.050094 C 233.006375 -162.206344 239.217312 -154.136031 242.885281 -148.956344 C 246.55325 -143.77275 252.131375 -135.194625 255.385281 -129.702438 C 258.643094 -124.214156 263.529812 -115.155563 266.350125 -109.393844 C 269.166531 -103.628219 273.3345 -94.167281 275.693875 -88.163375 C 278.049344 -82.163375 281.467312 -72.339156 283.342312 -66.136031 C 285.217312 -59.932906 287.8345 -49.815719 289.213406 -43.448531 C 290.592312 -37.081344 292.412625 -26.733688 293.279812 -20.245406 C 294.147 -13.753219 295.119656 -3.245406 295.4595 3.328812 C 295.80325 9.899125 295.932156 20.5085 295.744656 27.121781 C 295.557156 33.735062 294.830594 44.3835 294.107937 50.992875 C 293.385281 57.60225 291.791531 68.196 290.533719 74.762406 C 289.275906 81.324906 286.838406 91.821 285.045437 98.293656 C 283.256375 104.766312 279.939969 115.074906 277.623562 121.41475 C 275.30325 127.750687 271.166531 137.813187 268.3345 143.97725 C 265.502469 150.141312 260.545437 159.891312 257.205594 165.836625 C 253.869656 171.781937 248.107937 181.137406 244.287625 186.824906 C 240.467312 192.5085 233.951687 201.422562 229.662625 206.805375 C 225.377469 212.188187 218.11575 220.582719 213.389187 225.629594 C 208.658719 230.672562 200.717312 238.500687 195.568875 243.176469 C 190.424344 247.848344 181.8345 255.043656 176.30325 259.309281 C 170.772 263.571 161.592312 270.082719 155.7095 273.906937 C 149.826687 277.731156 140.107937 283.524125 133.908719 286.879594 C 127.705594 290.231156 117.502469 295.22725 111.018094 298.082719 C 104.537625 300.942094 93.908719 305.1335 87.186062 307.473344 C 80.463406 309.817094 69.486844 313.153031 62.568875 314.953812 C 55.647 316.750687 44.381375 319.203812 37.307156 320.446 C 30.229031 321.692094 18.752469 323.246781 11.568875 323.918656 C 4.385281 324.590531 -7.224094 325.203812 -14.474094 325.301469 C -21.724094 325.395219 -33.411594 325.094437 -40.677219 324.606156 C -47.94675 324.113969 -59.622531 322.848344 -66.860813 321.770219 C -74.095188 320.688187 -85.685031 318.488969 -92.845188 316.824906 C -100.005344 315.16475 -111.435031 312.024125 -118.470188 309.781937 C -125.50925 307.535844 -136.692844 303.457719 -143.556125 300.645219 C -150.419406 297.828812 -161.298313 292.863969 -167.942844 289.492875 C -174.587375 286.121781 -185.063938 280.254594 -191.44675 276.340531 C -197.825656 272.426469 -207.849094 265.707719 -213.923313 261.274125 C -220.001438 256.844437 -229.505344 249.321 -235.228 244.395219 C -240.950656 239.465531 -249.833469 231.153031 -255.1655 225.754594 C -260.497531 220.356156 -268.747531 211.328812 -273.653781 205.496781 C -278.556125 199.660844 -286.067844 189.949906 -290.505344 183.715531 C -294.938938 177.481156 -301.677219 167.153031 -305.618625 160.551469 C -309.556125 153.953812 -315.478 143.074906 -318.888156 136.149125 C -322.298313 129.223344 -327.341281 117.848344 -330.19675 110.637406 C -333.052219 103.426469 -337.200656 91.6335 -339.474094 84.184281 C -341.751438 76.738969 -344.927219 64.60225 -346.603 56.965531 C -348.282688 49.328812 -350.493625 36.922562 -351.560031 29.145219 C -352.622531 21.363969 -353.841281 8.7585 -354.278781 0.887406 C -354.716281 -6.987594 -354.903781 -19.690719 -354.704563 -27.604781 C -354.505344 -35.52275 -353.685031 -48.261031 -352.849094 -56.171188 C -352.013156 -64.081344 -350.145969 -76.761031 -348.673313 -84.612594 C -347.19675 -92.46025 -344.317844 -105.014938 -342.208469 -112.753219 C -340.099094 -120.4915 -336.200656 -132.815719 -333.466281 -140.389938 C -330.728 -147.964156 -325.829563 -159.983688 -322.481906 -167.346969 C -319.130344 -174.71025 -313.267063 -186.358688 -309.32175 -193.456344 C -305.372531 -200.550094 -298.556125 -211.714156 -294.032688 -218.499313 C -289.505344 -225.284469 -281.786594 -235.929 -276.712375 -242.354781 C -271.638156 -248.780563 -263.056125 -258.800094 -257.462375 -264.819625 C -251.864719 -270.843063 -242.466281 -280.175094 -236.380344 -285.753219 C -230.294406 -291.331344 -220.138156 -299.932906 -213.595188 -305.02275 C -207.052219 -310.112594 -196.188938 -317.874313 -189.231906 -322.440719 C -182.274875 -327.003219 -170.774875 -333.909469 -163.44675 -337.921188 C -156.114719 -341.932906 -144.052219 -347.925094 -136.392063 -351.343063 C -128.731906 -354.764938 -116.177219 -359.77275 -108.235813 -362.577438 C -100.294406 -365.386031 -87.333469 -369.409469 -79.157688 -371.577438 C -70.985813 -373.7415 -57.681125 -376.694625 -49.325656 -378.202438 C -40.970188 -379.71025 -27.423313 -381.608688 -18.942844 -382.448531 C -10.462375 -383.284469 3.236844 -384.08525 11.791531 -384.2415 C 20.342312 -384.39775 34.127469 -384.096969 42.701687 -383.561813 C 51.275906 -383.030563 65.045437 -381.624313 73.580594 -380.39775 C 82.11575 -379.171188 95.775906 -376.636031 104.221219 -374.718063 C 112.662625 -372.804 126.139187 -369.182906 134.432156 -366.58525 C 142.725125 -363.987594 155.908719 -359.268844 163.994656 -356.003219 C 172.0845 -352.733688 184.900906 -346.948531 192.732937 -343.026656 C 200.564969 -339.108688 212.916531 -332.296188 220.436062 -327.7415 C 227.955594 -323.186813 239.760281 -315.3665 246.916531 -310.202438 C 254.076687 -305.038375 265.272 -296.268844 272.014187 -290.526656 C 278.760281 -284.784469 289.236844 -275.104781 295.522 -268.815719 C 301.807156 -262.526656 311.525906 -251.9915 317.307156 -245.194625 C 323.092312 -238.393844 331.963406 -227.08525 337.197781 -219.815719 C 342.432156 -212.546188 350.393094 -200.503219 355.045437 -192.807906 C 359.697781 -185.112594 366.697781 -172.429 370.732937 -164.358688 C 374.768094 -156.284469 380.744656 -143.030563 384.131375 -134.628219 C 387.514187 -126.225875 392.42825 -112.475875 395.139187 -103.800094 C 397.854031 -95.120406 401.662625 -80.975875 403.674344 -72.077438 C 405.686062 -63.175094 408.346219 -48.714156 409.643094 -39.64775 C 410.939969 -30.581344 412.455594 -15.905563 413.022 -6.729781 C 413.588406 2.442094 413.900906 17.250687 413.725125 26.473344 C 413.55325 35.699906 412.67825 50.53975 411.764187 59.750687 C 410.850125 68.965531 408.791531 83.731156 407.131375 92.875687 C 405.475125 102.016312 402.2095 116.629594 399.814969 125.645219 C 397.420437 134.660844 392.998562 149.024125 389.873562 157.848344 C 386.752469 166.672562 381.143094 180.672562 377.307156 189.250687 C 373.471219 197.824906 366.748562 211.3835 362.221219 219.653031 C 357.697781 227.922562 349.881375 240.942094 344.686062 248.848344 C 339.49075 256.754594 330.61575 269.149125 324.783719 276.637406 C 318.951687 284.129594 309.088406 295.821 302.650906 302.840531 C 296.213406 309.863969 285.397 320.742875 278.389187 327.246781 C 271.385281 333.754594 259.686062 343.785844 252.154812 349.731156 C 244.623562 355.676469 232.123562 364.762406 224.111844 370.10225 C 216.100125 375.438187 202.854031 383.5085 194.412625 388.207719 C 185.967312 392.903031 172.076687 399.930375 163.252469 403.946 C 154.432156 407.965531 139.967312 413.848344 130.814969 417.153031 C 121.666531 420.457719 106.725125 425.199906 97.307156 427.770219 C 87.889187 430.340531 72.572781 433.871781 62.947781 435.680375 C 53.322781 437.492875 37.713406 439.781937 27.939969 440.821 C 18.162625 441.860062 2.36575 442.918656 -7.493625 443.168656 C -17.353 443.418656 -33.231906 443.172562 -43.114719 442.629594 C -52.993625 442.082719 -68.864719 440.586625 -78.700656 439.246781 C -88.5405 437.906937 -104.2905 435.110062 -114.024875 432.973344 C -123.755344 430.840531 -139.286594 426.781937 -148.849094 423.867875 C -158.411594 420.953812 -173.614719 415.653031 -182.942844 411.969437 C -192.270969 408.281937 -207.0405 401.746781 -216.07175 397.309281 C -225.106906 392.867875 -239.368625 385.149125 -248.0405 379.985062 C -256.716281 374.821 -270.341281 365.949906 -278.599094 360.086625 C -286.860813 354.219437 -299.774875 344.238969 -307.563938 337.711625 C -315.353 331.180375 -327.478 320.184281 -334.739719 313.028031 C -342.005344 305.871781 -353.228 293.875687 -359.9155 286.1335 C -366.603 278.387406 -376.880344 265.496781 -382.94675 257.215531 C -389.00925 248.934281 -398.228 235.223344 -403.626438 226.453812 C -409.020969 217.684281 -417.145969 203.219437 -421.837375 194.016312 C -426.532688 184.813187 -433.501438 169.703812 -437.454563 160.121781 C -441.403781 150.53975 -447.13425 134.856156 -450.313938 124.953812 C -453.493625 115.055375 -457.989719 98.918656 -460.376438 88.762406 C -462.75925 78.610062 -465.931125 62.110062 -467.497531 51.762406 C -469.060031 41.41475 -470.919406 24.656937 -471.653781 14.184281 C -472.38425 3.711625 -472.888156 -13.179 -472.774875 -23.706344 C -472.6655 -34.237594 -471.802219 -51.179 -470.845188 -61.702438 C -469.888156 -72.225875 -467.685031 -89.100875 -465.880344 -99.546188 C -464.075656 -109.9915 -460.485813 -126.682906 -457.837375 -136.979781 C -455.188938 -147.276656 -450.267063 -163.686813 -446.794406 -173.768844 C -443.32175 -183.854781 -437.087375 -199.854781 -432.802219 -209.655563 C -428.517063 -219.46025 -420.978 -234.968063 -415.903781 -244.429 C -410.829563 -253.886031 -402.067844 -268.784469 -396.231906 -277.831344 C -390.395969 -286.878219 -380.407688 -301.054 -373.845188 -309.628219 C -367.278781 -318.202438 -356.173313 -331.58525 -348.923313 -339.636031 C -341.673313 -347.682906 -329.481906 -360.175094 -321.583469 -367.639938 C -313.685031 -375.100875 -300.489719 -386.600875 -291.989719 -393.429 C -283.493625 -400.261031 -269.388156 -410.714156 -260.341281 -416.854781 C -251.294406 -422.995406 -236.333469 -432.280563 -226.794406 -437.690719 C -217.251438 -443.100875 -201.556125 -451.206344 -191.583469 -455.846969 C -181.614719 -460.4915 -165.263156 -467.323531 -154.919406 -471.163375 C -144.57175 -475.003219 -127.681125 -480.518844 -117.028781 -483.526656 C -106.380344 -486.538375 -89.044406 -490.702438 -78.153781 -492.850875 C -67.263156 -494.999313 -49.591281 -497.733688 -38.528781 -499.007125 C -27.470188 -500.280563 -9.599094 -501.636031 1.561062 -502.018844 C 12.721219 -502.401656 30.713406 -502.284469 41.904812 -501.768844 C 53.096219 -501.249313 71.064969 -499.702438 82.213406 -498.292281 C 93.357937 -496.878219 111.205594 -493.89775 122.232937 -491.58525 C 133.264187 -489.27275 150.857937 -484.823531 161.701687 -481.620406 C 172.541531 -478.421188 189.787625 -472.581344 200.36575 -468.511031 C 210.943875 -464.440719 227.697781 -457.202438 237.947781 -452.280563 C 248.193875 -447.358688 264.377469 -438.77275 274.229031 -433.026656 C 284.080594 -427.284469 299.568875 -417.421188 308.955594 -410.886031 C 318.338406 -404.350875 333.010281 -393.21025 341.86575 -385.925094 C 350.721219 -378.636031 364.518094 -366.350875 372.787625 -358.354781 C 381.05325 -350.358688 393.830594 -336.952438 401.451687 -328.292281 C 409.068875 -319.628219 420.772 -305.198531 427.697781 -295.929 C 434.619656 -286.655563 445.17825 -271.296188 451.350125 -261.468063 C 457.525906 -251.643844 466.814969 -235.425094 472.197781 -225.104781 C 477.576687 -214.788375 485.580594 -197.850875 490.127469 -187.104781 C 494.67825 -176.354781 501.30325 -158.757125 504.986844 -147.643844 C 508.666531 -136.534469 513.885281 -118.421188 516.674344 -107.018844 C 519.463406 -95.620406 523.217312 -77.096969 525.0845 -65.475875 C 526.955594 -53.854781 529.201687 -35.02275 530.135281 -23.257125 C 531.068875 -11.4915 531.8345 7.492875 531.822781 19.324906 C 531.807156 31.160844 531.014187 50.211625 530.045437 62.043656 C 529.080594 73.875687 526.772 92.856156 524.854031 104.606156 C 522.939969 116.356156 519.104031 135.141312 516.244656 146.731156 C 513.381375 158.321 508.018094 176.785844 504.225125 188.141312 C 500.436062 199.496781 493.623562 217.531937 488.920437 228.578812 C 484.217312 239.621781 475.916531 257.086625 470.322781 267.750687 C 464.732937 278.41475 455.064969 295.215531 448.619656 305.422562 C 442.174344 315.6335 431.147 331.641312 423.881375 341.324906 C 416.61575 351.0085 404.295437 366.125687 396.260281 375.223344 C 388.221219 384.321 374.713406 398.442094 365.947781 406.891312 C 357.182156 415.336625 342.525906 428.360062 333.0845 436.094437 C 323.639187 443.832719 307.947781 455.668656 297.885281 462.641312 C 287.822781 469.617875 271.186062 480.196 260.568875 486.356156 C 249.951687 492.516312 232.475125 501.738969 221.373562 507.043656 C 210.268094 512.35225 192.072781 520.188187 180.545437 524.594437 C 169.018094 529.004594 150.174344 535.336625 138.295437 538.813187 C 126.420437 542.28975 107.092312 547.141312 94.947781 549.660844 C 82.799344 552.184281 63.092312 555.453812 50.748562 556.992875 C 38.400906 558.535844 18.436062 560.219437 5.971219 560.770219 C -6.489719 561.321 -26.567844 561.418656 -39.067844 560.965531 C -51.567844 560.512406 -71.653781 558.965531 -84.106906 557.504594 C -96.563938 556.047562 -116.513156 552.91475 -128.845188 550.457719 C -141.181125 548.000687 -160.864719 543.246781 -172.993625 539.797562 C -185.118625 536.348344 -204.399875 530.0085 -216.243625 525.586625 C -228.087375 521.168656 -246.872531 513.309281 -258.356906 507.938187 C -269.837375 502.567094 -287.962375 493.168656 -299.005344 486.875687 C -310.048313 480.582719 -327.411594 469.7585 -337.942844 462.582719 C -348.474094 455.406937 -364.954563 443.176469 -374.899875 435.156937 C -384.845188 427.1335 -400.325656 413.590531 -409.618625 404.778031 C -418.911594 395.965531 -433.306125 381.196 -441.888156 371.641312 C -450.470188 362.086625 -463.661594 346.149125 -471.470188 335.906937 C -479.278781 325.668656 -491.185031 308.703812 -498.161594 297.840531 C -505.138156 286.97725 -515.657688 269.043656 -521.75925 257.625687 C -527.860813 246.207719 -536.954563 227.449906 -542.138156 215.551469 C -547.317844 203.653031 -554.888156 184.188187 -559.103 171.879594 C -563.32175 159.574906 -569.310031 139.488969 -572.536594 126.848344 C -575.763156 114.207719 -580.157688 93.668656 -582.368625 80.781937 C -584.579563 67.891312 -587.298313 47.012406 -588.470188 33.953812 C -589.638156 20.899125 -590.681125 -0.175094 -590.802219 -13.319625 C -590.923313 -26.46025 -590.282688 -47.620406 -589.345188 -60.761031 C -588.407688 -73.905563 -586.048313 -94.987594 -584.056125 -108.046188 C -582.063938 -121.108688 -578.028781 -141.999313 -574.989719 -154.889938 C -571.94675 -167.784469 -566.216281 -188.331344 -562.142063 -200.968063 C -558.067844 -213.608688 -550.704563 -233.679 -545.614719 -245.979781 C -540.528781 -258.280563 -531.548313 -277.749313 -525.474094 -289.632125 C -519.399875 -301.514938 -508.853 -320.233688 -501.829563 -331.6165 C -494.806125 -343.003219 -482.7905 -360.878219 -474.853 -371.694625 C -466.919406 -382.507125 -453.442844 -399.393844 -444.642063 -409.561813 C -435.845188 -419.729781 -421.0405 -435.518844 -411.431125 -444.971969 C -401.82175 -454.425094 -385.743625 -469.02275 -375.380344 -477.694625 C -365.017063 -486.3665 -347.7905 -499.639938 -336.739719 -507.475875 C -325.688938 -515.311813 -307.4155 -527.225875 -295.739719 -534.167281 C -284.067844 -541.104781 -264.833469 -551.495406 -252.610813 -557.4915 C -240.388156 -563.483688 -220.341281 -572.362594 -207.645969 -577.374313 C -194.950656 -582.382125 -174.204563 -589.620406 -161.114719 -593.600875 C -148.028781 -597.58525 -126.716281 -603.143844 -113.317844 -606.073531 C -99.919406 -609.007125 -78.173313 -612.874313 -64.552219 -614.725875 C -50.927219 -616.573531 -28.895969 -618.659469 -15.138156 -619.409469 C -1.380344 -620.163375 20.795437 -620.4915 34.604031 -620.139938 C 48.408719 -619.788375 70.604031 -618.339156 84.377469 -616.878219 C 98.147 -615.413375 120.213406 -612.167281 133.857937 -609.596969 C 147.498562 -607.030563 169.283719 -602.038375 182.705594 -598.374313 C 196.131375 -594.71025 217.486844 -587.932906 230.604031 -583.194625 C 243.721219 -578.452438 264.522 -569.999313 277.252469 -564.21025 C 289.979031 -558.421188 310.088406 -548.27275 322.342312 -541.464156 C 334.592312 -534.655563 353.857937 -522.921188 365.55325 -515.136031 C 377.244656 -507.350875 395.568875 -494.073531 406.627469 -485.350875 C 417.686062 -476.632125 434.900906 -461.882125 445.248562 -452.280563 C 455.596219 -442.679 471.639187 -426.577438 481.205594 -416.155563 C 490.775906 -405.729781 505.486844 -388.343063 514.205594 -377.155563 C 522.924344 -365.971969 536.232937 -347.405563 544.049344 -335.530563 C 551.861844 -323.655563 563.674344 -304.057906 570.525906 -291.565719 C 577.377469 -279.069625 587.5845 -258.518844 593.42825 -245.483688 C 599.272 -232.452438 607.850125 -211.120406 612.643094 -197.624313 C 617.432156 -184.132125 624.256375 -162.104781 627.9595 -148.237594 C 631.658719 -134.374313 636.729031 -111.839156 639.314969 -97.690719 C 641.900906 -83.542281 645.147 -60.608688 646.592312 -46.264938 C 648.033719 -31.921188 649.42825 -8.753219 649.721219 5.692094 C 650.014187 20.137406 649.564969 43.391312 648.693875 57.848344 C 647.822781 72.305375 645.482937 95.512406 643.451687 109.887406 C 641.420437 124.262406 637.229031 147.2585 634.045437 161.457719 C 630.861844 175.660844 624.830594 198.305375 620.506375 212.235062 C 616.182156 226.16475 608.314969 248.281937 602.877469 261.848344 C 597.436062 275.418656 587.830594 296.899125 581.307156 310.020219 C 574.783719 323.141312 563.432156 343.832719 555.857937 356.41475 C 548.283719 368.996781 535.295437 388.750687 526.717312 400.715531 C 518.139187 412.676469 503.561062 431.367875 494.029812 442.629594 C 484.498562 453.891312 468.443875 471.387406 458.022 481.871781 C 447.600125 492.356156 430.166531 508.559281 418.908719 518.196 C 407.650906 527.832719 388.900906 542.606156 376.881375 551.328812 C 364.857937 560.051469 344.967312 573.309281 332.260281 581.059281 C 319.549344 588.809281 298.592312 600.461625 285.272 607.184281 C 271.951687 613.903031 250.092312 623.844437 236.244656 629.488969 C 222.397 635.129594 199.752469 643.332719 185.463406 647.856156 C 171.174344 652.379594 147.893094 658.723344 133.256375 662.094437 C 118.619656 665.465531 94.869656 669.961625 79.975125 672.156937 C 65.0845 674.348344 40.975125 676.906937 25.920437 677.895219 C 10.86575 678.887406 -13.403781 679.512406 -28.520969 679.301469 C -43.638156 679.086625 -67.938938 677.78975 -83.028781 676.356156 C -98.114719 674.922562 -122.298313 671.617875 -137.255344 668.973344 C -152.212375 666.324906 -176.091281 661.121781 -190.82175 657.281937 C -205.548313 653.438187 -229.001438 646.313187 -243.407688 641.28975 C -257.813938 636.266312 -280.6655 627.254594 -294.653781 621.078812 C -308.642063 614.906937 -330.751438 604.090531 -344.228 596.801469 C -357.700656 589.5085 -378.895969 576.899125 -391.770969 568.531937 C -404.642063 560.16475 -424.82175 545.8835 -437.017063 536.492875 C -449.208469 527.098344 -468.216281 511.207719 -479.638156 500.844437 C -491.060031 490.481156 -508.755344 473.071 -519.337375 461.805375 C -529.919406 450.535844 -546.235813 431.742875 -555.895969 419.6335 C -565.560031 407.528031 -580.302219 387.422562 -588.978 374.551469 C -597.657688 361.680375 -610.806125 340.426469 -618.442844 326.867875 C -626.075656 313.313187 -637.474094 291.012406 -644.013156 276.860062 C -650.552219 262.707719 -660.1655 239.524125 -665.563938 224.863969 C -670.958469 210.199906 -678.704563 186.262406 -682.911594 171.180375 C -687.118625 156.098344 -692.899875 131.567094 -695.892063 116.16475 C -698.888156 100.762406 -702.724094 75.805375 -704.481906 60.180375 C -706.235813 44.555375 -708.544406 3.555375 -708.544406 3.555375 " transform="matrix(1,0,0,-1,709.103,680.071)"/>
</g>
</svg>
